<svg width="27" height="27" viewBox="0 0 27 27" fill="none" xmlns="http://www.w3.org/2000/svg">
<circle cx="14" cy="12" r="10" fill="#FFDE59"/>
<path fill-rule="evenodd" clip-rule="evenodd" d="M7.61923 16.3196C7.61509 16.3186 7.58517 16.2759 7.55286 16.2244C7.52055 16.1729 7.45615 16.0179 7.40939 15.8794C7.36256 15.7412 7.26182 15.3572 7.1851 15.0265C7.10838 14.6957 6.99388 14.1407 6.93046 13.7929C6.86704 13.4452 6.79833 13.0206 6.77756 12.849C6.7568 12.6774 6.72578 12.5128 6.70847 12.4825C6.69116 12.4522 6.51696 12.3058 6.32086 12.1565C6.12506 12.0077 5.60445 11.5895 5.16416 11.227C4.69412 10.8405 4.36343 10.5444 4.36367 10.5098C4.36394 10.4682 4.43027 10.4402 4.59214 10.4145C4.71763 10.3942 5.04989 10.3664 5.33038 10.3526C5.61096 10.3386 6.30344 10.3238 6.86957 10.3193C7.43561 10.3151 8.13861 10.3116 8.43224 10.3115C8.72588 10.3115 9.42885 10.3187 9.99433 10.3276C10.5602 10.3365 11.5601 10.3587 12.216 10.3768C12.8724 10.3946 14.0862 10.4338 14.9138 10.4633C15.7414 10.4928 16.8425 10.5398 17.3603 10.5672C17.8785 10.5951 18.998 10.6462 19.8488 10.6817C20.6996 10.7167 21.649 10.7618 21.9589 10.7822C22.2694 10.8023 22.5881 10.8331 22.6675 10.851C22.7469 10.8688 22.8411 10.9067 22.877 10.9351C22.914 10.9641 22.9338 11.022 22.9232 11.0692C22.9111 11.1229 22.6903 11.3162 22.3004 11.615C21.9682 11.8693 21.2588 12.3964 20.7237 12.7857C20.1889 13.175 19.5115 13.665 19.2183 13.8746C18.9254 14.0842 18.3507 14.4931 17.9416 14.784C17.5329 15.075 17.1287 15.3496 17.0442 15.3948C16.9595 15.4396 16.8306 15.4785 16.7574 15.481C16.6845 15.4835 16.506 15.4513 16.3612 15.4099C16.216 15.3684 15.5597 15.1954 14.9024 15.025C13.7074 14.7151 13.7074 14.7151 13.4999 14.7591C13.3858 14.7834 13.0357 14.8786 12.7215 14.9703C12.4072 15.0621 11.8278 15.2281 11.4334 15.339C11.039 15.4499 10.5375 15.5856 10.3184 15.6409C10.0994 15.6959 9.71132 15.8018 9.45565 15.8757C9.19991 15.9499 8.75995 16.0737 8.47823 16.151C8.19613 16.2282 7.8892 16.2981 7.79605 16.3064C7.70297 16.3144 7.62337 16.3205 7.61923 16.3196ZM7.84339 16.1484C7.89606 16.132 8.2509 16.0212 8.63167 15.9022C9.01289 15.7831 9.48466 15.6214 9.68048 15.543C9.8763 15.4646 10.4925 15.1506 11.0502 14.8456C11.73 14.4735 12.054 14.2766 12.034 14.2478C12.0148 14.2207 11.402 14.0671 10.3406 13.8239C9.4254 13.6142 8.66806 13.4478 8.6572 13.4539C8.64634 13.46 8.55623 13.703 8.45658 13.9938C8.35692 14.2847 8.17775 14.8012 8.05861 15.1419C7.93917 15.4821 7.8204 15.8546 7.79464 15.9694C7.74784 16.1779 7.74776 16.1783 7.84339 16.1484ZM7.70555 15.5089C7.73061 15.4835 7.8297 15.2339 7.9251 14.955C8.02096 14.6758 8.17488 14.2277 8.26686 13.9588C8.35923 13.6898 8.44282 13.4336 8.45289 13.3888C8.46843 13.3195 8.44599 13.2963 8.3004 13.2318C8.20663 13.1901 8.06148 13.1308 7.97829 13.1C7.8951 13.0692 7.81616 13.0547 7.80258 13.0677C7.78936 13.0808 7.77081 13.2021 7.76141 13.3374C7.752 13.4726 7.72422 13.9397 7.69946 14.3757C7.67508 14.8118 7.6561 15.2556 7.65716 15.3618C7.65902 15.5067 7.67119 15.544 7.70555 15.5089ZM16.7166 15.2171C16.799 15.2374 16.8966 15.2411 16.9333 15.2255C16.97 15.2098 17.1485 15.094 17.3298 14.9677C17.5114 14.8416 17.8476 14.6042 18.0773 14.44C18.3071 14.2757 18.6245 14.0498 18.7827 13.9384C18.9405 13.8268 19.3664 13.5208 19.7287 13.259C20.0909 12.9971 20.5358 12.6736 20.717 12.5405C20.8982 12.4075 21.18 12.1979 21.3428 12.0746C21.506 11.9514 21.6423 11.839 21.646 11.8241C21.6501 11.8097 21.6152 11.8065 21.5693 11.8176C21.523 11.8283 21.2631 11.9351 20.9913 12.0546C20.7198 12.1745 20.4096 12.3099 20.3017 12.3556C20.1941 12.4018 19.7865 12.5578 19.3952 12.7026C19.0039 12.847 18.3935 13.0717 18.0385 13.201C17.6834 13.3307 17.0061 13.5732 16.5336 13.74C16.0611 13.9068 15.4197 14.1306 15.1081 14.2372C14.6171 14.4053 14.5523 14.4367 14.621 14.4739C14.6647 14.4976 15.0387 14.6344 15.4518 14.7781C15.865 14.9215 16.2851 15.0707 16.3851 15.1095C16.485 15.1487 16.6342 15.1969 16.7166 15.2171ZM10.6766 13.5415C13.0324 14.0745 13.0324 14.0745 13.4099 13.9524C13.6174 13.8855 13.9109 13.7959 14.0616 13.7534C14.2122 13.7108 14.6502 13.5834 15.0342 13.4694C15.4182 13.3555 16.2373 13.1149 16.8535 12.9343C17.4698 12.7541 18.1464 12.5532 18.3567 12.4877C18.567 12.4222 19.2538 12.2143 19.883 12.0255C20.5122 11.8368 21.3002 11.5938 21.6335 11.4857C21.9672 11.3776 22.3104 11.2552 22.396 11.2138C22.4819 11.1724 22.5551 11.1246 22.5589 11.1077C22.5627 11.0907 22.4972 11.0867 22.4131 11.0985C22.3291 11.1103 21.9404 11.1975 21.5496 11.2924C21.1584 11.3876 20.6219 11.5208 20.3565 11.5886C20.0912 11.6563 19.4785 11.8117 18.9946 11.9342C18.5108 12.0564 17.5858 12.2954 16.9391 12.4652C16.2924 12.635 15.6126 12.8117 15.4283 12.8581C15.2439 12.9048 14.7897 13.0268 14.4188 13.1301C14.0479 13.2331 13.6614 13.3461 13.5595 13.381C13.4575 13.4163 13.3651 13.4319 13.354 13.4162C13.343 13.4002 13.3908 13.3317 13.4601 13.2638C13.53 13.1957 13.7172 13.0183 13.8762 12.8696C14.0357 12.7206 14.5141 12.2637 14.9399 11.8542C15.5418 11.2748 15.6982 11.1059 15.6448 11.0939C15.6068 11.0854 15.5245 11.084 15.462 11.0914C15.3992 11.0984 14.8938 11.1051 14.3395 11.1066C13.7851 11.1081 12.9735 11.1182 12.5364 11.1292C12.0992 11.1403 11.3588 11.15 10.8916 11.1507C10.4243 11.1514 9.63024 11.1486 9.12723 11.1449C8.62422 11.1411 8.01244 11.1326 7.76821 11.1256C7.52354 11.1188 7.09472 11.1032 6.8149 11.091C6.535 11.0792 6.14867 11.0574 5.95634 11.0428C5.76402 11.0282 5.50917 10.9945 5.39021 10.9682C5.27133 10.9415 5.17129 10.9312 5.16817 10.9451C5.16504 10.959 5.53852 11.2758 5.99775 11.6488C6.83343 12.3272 6.83343 12.3272 7.5338 12.1823C7.91913 12.1029 8.61801 11.9805 9.08704 11.9103C9.55599 11.8404 10.2968 11.7352 10.734 11.6767C11.1711 11.6183 11.7193 11.553 11.952 11.5321C12.1848 11.5108 12.769 11.4451 13.2493 11.3859C13.7298 11.3265 14.221 11.2701 14.3409 11.2603C14.4605 11.2504 14.5847 11.2483 14.6167 11.2555C14.6528 11.2636 14.6584 11.2774 14.6319 11.2917C14.6084 11.3047 14.2975 11.3851 13.9416 11.4707C13.5856 11.5567 13.0801 11.6786 12.8184 11.7422C12.5572 11.8056 12.124 11.9135 11.8559 11.9813C11.588 12.0496 11.1526 12.1566 10.8889 12.2191C10.625 12.2819 10.0527 12.4145 9.61731 12.5144C9.18201 12.6139 8.64218 12.7214 8.41766 12.7534C8.19313 12.7854 7.992 12.8205 7.97089 12.8319C7.94986 12.8428 8.02013 12.8871 8.12663 12.9303C8.23756 12.9748 9.33179 13.2372 10.6766 13.5415Z" fill="white"/>
</svg>
